<svg version="1.1" xmlns="http://www.w3.org/2000/svg" viewBox="0 0 1713.59375 1420" width="1713.59375" height="1420" filter="invert(93%) hue-rotate(180deg)">
  <!-- svg-source:excalidraw -->
  
  <defs>
    <style class="style-fonts">
      @font-face {
        font-family: "Virgil";
        src: url("https://excalidraw.com/Virgil.woff2");
      }
      @font-face {
        font-family: "Cascadia";
        src: url("https://excalidraw.com/Cascadia.woff2");
      }
    </style>
  </defs>
  <rect x="0" y="0" width="1713.59375" height="1420" fill="#ffffff"></rect><g stroke-linecap="round" transform="translate(470 110) rotate(0 340.00000000000017 650)"><path d="M0 0 C268.92 0, 537.83 0, 680 0 M0 0 C213.26 0, 426.52 0, 680 0 M680 0 C680 517.53, 680 1035.05, 680 1300 M680 0 C680 284.99, 680 569.97, 680 1300 M680 1300 C440.23 1300, 200.46 1300, 0 1300 M680 1300 C542.25 1300, 404.5 1300, 0 1300 M0 1300 C0 812.59, 0 325.18, 0 0 M0 1300 C0 836.27, 0 372.53, 0 0" stroke="#495057" stroke-width="1" fill="none"></path></g><g stroke-linecap="round" transform="translate(510 170) rotate(0 300 30)"><path d="M0 0 C163.56 0, 327.12 0, 600 0 M0 0 C154.28 0, 308.56 0, 600 0 M600 0 C600 13.92, 600 27.83, 600 60 M600 0 C600 22.29, 600 44.58, 600 60 M600 60 C472.3 60, 344.59 60, 0 60 M600 60 C377.51 60, 155.01 60, 0 60 M0 60 C0 37.73, 0 15.47, 0 0 M0 60 C0 46.75, 0 33.5, 0 0" stroke="#495057" stroke-width="1" fill="none"></path></g><g transform="translate(629.53125 183.20000000000005) rotate(0 180.46875 16.8)"><text x="0" y="0" font-family="Cascadia, Segoe UI Emoji" font-size="28px" fill="#000000" text-anchor="start" style="white-space: pre;" direction="ltr" dominant-baseline="text-before-edge">https://joyofcode.xyz/</text></g><g stroke-linecap="round"><g transform="translate(810 330) rotate(0 0 30)"><path d="M0 0 C0 12.32, 0 24.65, 0 60 M0 0 C0 20.18, 0 40.35, 0 60" stroke="#000000" stroke-width="2" fill="none"></path></g><g transform="translate(810 330) rotate(0 0 30)"><path d="M0 60 L-6.34 46.41 L6.34 46.41 L0 60" stroke="none" stroke-width="0" fill="#000000" fill-rule="evenodd"></path><path d="M0 60 C-1.3 57.21, -2.6 54.42, -6.34 46.41 M0 60 C-2.13 55.43, -4.26 50.86, -6.34 46.41 M-6.34 46.41 C-1.76 46.41, 2.81 46.41, 6.34 46.41 M-6.34 46.41 C-2.02 46.41, 2.29 46.41, 6.34 46.41 M6.34 46.41 C4.37 50.63, 2.4 54.86, 0 60 M6.34 46.41 C4.93 49.44, 3.51 52.47, 0 60 M0 60 C0 60, 0 60, 0 60 M0 60 C0 60, 0 60, 0 60" stroke="#000000" stroke-width="2" fill="none"></path></g></g><mask></mask><g stroke-linecap="round" transform="translate(510 430) rotate(0 300 170)"><path d="M0 0 C167.38 0, 334.75 0, 600 0 M0 0 C165.96 0, 331.92 0, 600 0 M600 0 C600 107.49, 600 214.98, 600 340 M600 0 C600 117.15, 600 234.31, 600 340 M600 340 C479.27 340, 358.55 340, 0 340 M600 340 C403.74 340, 207.47 340, 0 340 M0 340 C0 217.78, 0 95.57, 0 0 M0 340 C0 252.32, 0 164.64, 0 0" stroke="#495057" stroke-width="1" fill="none"></path></g><g transform="translate(510 390) rotate(0 35.15625 12)"><text x="0" y="0" font-family="Cascadia, Segoe UI Emoji" font-size="20px" fill="#000000" text-anchor="start" style="white-space: pre;" direction="ltr" dominant-baseline="text-before-edge">server</text></g><g transform="translate(530 450) rotate(0 146.484375 12)"><text x="0" y="0" font-family="Cascadia, Segoe UI Emoji" font-size="20px" fill="#c92a2a" text-anchor="start" style="white-space: pre;" direction="ltr" dominant-baseline="text-before-edge">hooks.server.ts (request)</text></g><g transform="translate(510 130) rotate(0 41.015625 12)"><text x="0" y="0" font-family="Cascadia, Segoe UI Emoji" font-size="20px" fill="#000000" text-anchor="start" style="white-space: pre;" direction="ltr" dominant-baseline="text-before-edge">request</text></g><g transform="translate(530 490) rotate(0 140.625 12)"><text x="0" y="0" font-family="Cascadia, Segoe UI Emoji" font-size="20px" fill="#087f5b" text-anchor="start" style="white-space: pre;" direction="ltr" dominant-baseline="text-before-edge">+layout.server.ts (load)</text></g><g transform="translate(530 530) rotate(0 128.90625 12)"><text x="0" y="0" font-family="Cascadia, Segoe UI Emoji" font-size="20px" fill="#000000" text-anchor="start" style="white-space: pre;" direction="ltr" dominant-baseline="text-before-edge">+page.server.ts (load)</text></g><g transform="translate(530 570) rotate(0 99.609375 12)"><text x="0" y="0" font-family="Cascadia, Segoe UI Emoji" font-size="20px" fill="#087f5b" text-anchor="start" style="white-space: pre;" direction="ltr" dominant-baseline="text-before-edge">+layout.ts (load)</text></g><g transform="translate(530 610) rotate(0 87.890625 12)"><text x="0" y="0" font-family="Cascadia, Segoe UI Emoji" font-size="20px" fill="#000000" text-anchor="start" style="white-space: pre;" direction="ltr" dominant-baseline="text-before-edge">+page.ts (load)</text></g><g transform="translate(530 730) rotate(0 152.34375 12)"><text x="0" y="0" font-family="Cascadia, Segoe UI Emoji" font-size="20px" fill="#c92a2a" text-anchor="start" style="white-space: pre;" direction="ltr" dominant-baseline="text-before-edge">hooks.server.ts (response)</text></g><g stroke-linecap="round" transform="translate(510 910) rotate(0 300 110)"><path d="M0 0 C135.79 0, 271.57 0, 600 0 M0 0 C162.03 0, 324.07 0, 600 0 M600 0 C600 50.13, 600 100.27, 600 220 M600 0 C600 46.09, 600 92.18, 600 220 M600 220 C443.46 220, 286.93 220, 0 220 M600 220 C436.49 220, 272.99 220, 0 220 M0 220 C0 151.96, 0 83.93, 0 0 M0 220 C0 143.73, 0 67.46, 0 0" stroke="#495057" stroke-width="1" fill="none"></path></g><g transform="translate(510 870) rotate(0 35.15625 12)"><text x="0" y="0" font-family="Cascadia, Segoe UI Emoji" font-size="20px" fill="#000000" text-anchor="start" style="white-space: pre;" direction="ltr" dominant-baseline="text-before-edge">client</text></g><g transform="translate(530 930) rotate(0 46.875 12)"><text x="0" y="0" font-family="Cascadia, Segoe UI Emoji" font-size="20px" fill="#343a40" text-anchor="start" style="white-space: pre;" direction="ltr" dominant-baseline="text-before-edge">app.html</text></g><g transform="translate(530 970) rotate(0 99.609375 12)"><text x="0" y="0" font-family="Cascadia, Segoe UI Emoji" font-size="20px" fill="#087f5b" text-anchor="start" style="white-space: pre;" direction="ltr" dominant-baseline="text-before-edge">+layout.ts (load)</text></g><g transform="translate(530 1010) rotate(0 87.890625 12)"><text x="0" y="0" font-family="Cascadia, Segoe UI Emoji" font-size="20px" fill="#000000" text-anchor="start" style="white-space: pre;" direction="ltr" dominant-baseline="text-before-edge">+page.ts (load)</text></g><g transform="translate(530 1050) rotate(0 82.03125 12)"><text x="0" y="0" font-family="Cascadia, Segoe UI Emoji" font-size="20px" fill="#087f5b" text-anchor="start" style="white-space: pre;" direction="ltr" dominant-baseline="text-before-edge">+layout.svelte</text></g><g transform="translate(530 1090) rotate(0 70.3125 12)"><text x="0" y="0" font-family="Cascadia, Segoe UI Emoji" font-size="20px" fill="#000000" text-anchor="start" style="white-space: pre;" direction="ltr" dominant-baseline="text-before-edge">+page.svelte</text></g><g stroke-linecap="round"><g transform="translate(810 810) rotate(0 0 30)"><path d="M0 0 C0 19.35, 0 38.69, 0 60 M0 0 C0 22.12, 0 44.24, 0 60" stroke="#000000" stroke-width="2" fill="none"></path></g><g transform="translate(810 810) rotate(0 0 30)"><path d="M0 60 L-6.34 46.41 L6.34 46.41 L0 60" stroke="none" stroke-width="0" fill="#000000" fill-rule="evenodd"></path><path d="M0 60 C-2.04 55.62, -4.09 51.23, -6.34 46.41 M0 60 C-2.34 54.99, -4.67 49.98, -6.34 46.41 M-6.34 46.41 C-2.79 46.41, 0.76 46.41, 6.34 46.41 M-6.34 46.41 C-3.28 46.41, -0.21 46.41, 6.34 46.41 M6.34 46.41 C3.84 51.76, 1.34 57.12, 0 60 M6.34 46.41 C4.75 49.82, 3.15 53.24, 0 60 M0 60 C0 60, 0 60, 0 60 M0 60 C0 60, 0 60, 0 60" stroke="#000000" stroke-width="2" fill="none"></path></g></g><mask></mask><g stroke-linecap="round"><g transform="translate(1130 590.4012466779077) rotate(0 60.000000000000455 -0.20062333895384654)"><path d="M0 0 C46.16 -0.15, 92.33 -0.31, 120 -0.4 M0 0 C46.46 -0.16, 92.91 -0.31, 120 -0.4" stroke="#000000" stroke-width="1" fill="none"></path></g><g transform="translate(1130 590.4012466779077) rotate(0 60.000000000000455 -0.20062333895384654)"><path d="M120 -0.4 L106.43 5.98 L106.38 -6.7 L120 -0.4" stroke="none" stroke-width="0" fill="#000000" fill-rule="evenodd"></path><path d="M120 -0.4 C114.78 2.05, 109.56 4.51, 106.43 5.98 M120 -0.4 C114.75 2.07, 109.49 4.54, 106.43 5.98 M106.43 5.98 C106.42 3.11, 106.41 0.25, 106.38 -6.7 M106.43 5.98 C106.41 1.75, 106.4 -2.47, 106.38 -6.7 M106.38 -6.7 C110.95 -4.59, 115.51 -2.48, 120 -0.4 M106.38 -6.7 C110.92 -4.6, 115.46 -2.5, 120 -0.4 M120 -0.4 C120 -0.4, 120 -0.4, 120 -0.4 M120 -0.4 C120 -0.4, 120 -0.4, 120 -0.4" stroke="#000000" stroke-width="1" fill="none"></path></g></g><mask></mask><g transform="translate(1270 510) rotate(0 164.0625 84)"><text x="0" y="0" font-family="Cascadia, Segoe UI Emoji" font-size="20px" fill="#000000" text-anchor="start" style="white-space: pre;" direction="ltr" dominant-baseline="text-before-edge">You can get data from</text><text x="0" y="24" font-family="Cascadia, Segoe UI Emoji" font-size="20px" fill="#000000" text-anchor="start" style="white-space: pre;" direction="ltr" dominant-baseline="text-before-edge">universal and server `load`</text><text x="0" y="48" font-family="Cascadia, Segoe UI Emoji" font-size="20px" fill="#000000" text-anchor="start" style="white-space: pre;" direction="ltr" dominant-baseline="text-before-edge">functions using SSR.</text><text x="0" y="72" font-family="Cascadia, Segoe UI Emoji" font-size="20px" fill="#000000" text-anchor="start" style="white-space: pre;" direction="ltr" dominant-baseline="text-before-edge"></text><text x="0" y="96" font-family="Cascadia, Segoe UI Emoji" font-size="20px" fill="#000000" text-anchor="start" style="white-space: pre;" direction="ltr" dominant-baseline="text-before-edge">You can still fetch on the</text><text x="0" y="120" font-family="Cascadia, Segoe UI Emoji" font-size="20px" fill="#000000" text-anchor="start" style="white-space: pre;" direction="ltr" dominant-baseline="text-before-edge">client inside your component</text><text x="0" y="144" font-family="Cascadia, Segoe UI Emoji" font-size="20px" fill="#000000" text-anchor="start" style="white-space: pre;" direction="ltr" dominant-baseline="text-before-edge">using CSR.</text></g><g stroke-linecap="round"><g transform="translate(1130.000000000001 1010.3742771962221) rotate(0 59.999999999999545 -0.1792237695092922)"><path d="M0 0 C25.54 -0.08, 51.08 -0.15, 120 -0.36 M0 0 C44.5 -0.13, 89 -0.27, 120 -0.36" stroke="#000000" stroke-width="1" fill="none"></path></g><g transform="translate(1130.000000000001 1010.3742771962221) rotate(0 59.999999999999545 -0.1792237695092922)"><path d="M120 -0.36 L106.42 6.02 L106.39 -6.66 L120 -0.36" stroke="none" stroke-width="0" fill="#000000" fill-rule="evenodd"></path><path d="M120 -0.36 C117.11 1, 114.22 2.36, 106.42 6.02 M120 -0.36 C114.97 2.01, 109.93 4.37, 106.42 6.02 M106.42 6.02 C106.41 1.32, 106.4 -3.39, 106.39 -6.66 M106.42 6.02 C106.42 3.22, 106.41 0.42, 106.39 -6.66 M106.39 -6.66 C111.16 -4.45, 115.94 -2.24, 120 -0.36 M106.39 -6.66 C109.61 -5.17, 112.83 -3.68, 120 -0.36 M120 -0.36 C120 -0.36, 120 -0.36, 120 -0.36 M120 -0.36 C120 -0.36, 120 -0.36, 120 -0.36" stroke="#000000" stroke-width="1" fill="none"></path></g></g><mask></mask><g transform="translate(670 270) rotate(0 146.484375 12)"><text x="0" y="0" font-family="Cascadia, Segoe UI Emoji" font-size="20px" fill="#000000" text-anchor="start" style="white-space: pre;" direction="ltr" dominant-baseline="text-before-edge">First page visit uses SSR</text></g><g transform="translate(530 1310) rotate(0 175.78125 24)"><text x="0" y="0" font-family="Cascadia, Segoe UI Emoji" font-size="20px" fill="#000000" text-anchor="start" style="white-space: pre;" direction="ltr" dominant-baseline="text-before-edge">SvelteKit uses a client router</text><text x="0" y="24" font-family="Cascadia, Segoe UI Emoji" font-size="20px" fill="#000000" text-anchor="start" style="white-space: pre;" direction="ltr" dominant-baseline="text-before-edge">like a SPA for navigation</text></g><g transform="translate(1270 930) rotate(0 216.796875 72)"><text x="0" y="0" font-family="Cascadia, Segoe UI Emoji" font-size="20px" fill="#000000" text-anchor="start" style="white-space: pre;" direction="ltr" dominant-baseline="text-before-edge">Universal `load` functions run on the</text><text x="0" y="24" font-family="Cascadia, Segoe UI Emoji" font-size="20px" fill="#000000" text-anchor="start" style="white-space: pre;" direction="ltr" dominant-baseline="text-before-edge">server and in the browser.</text><text x="0" y="48" font-family="Cascadia, Segoe UI Emoji" font-size="20px" fill="#000000" text-anchor="start" style="white-space: pre;" direction="ltr" dominant-baseline="text-before-edge"></text><text x="0" y="72" font-family="Cascadia, Segoe UI Emoji" font-size="20px" fill="#000000" text-anchor="start" style="white-space: pre;" direction="ltr" dominant-baseline="text-before-edge">A page component is rendered once</text><text x="0" y="96" font-family="Cascadia, Segoe UI Emoji" font-size="20px" fill="#000000" text-anchor="start" style="white-space: pre;" direction="ltr" dominant-baseline="text-before-edge">on the server and on the client</text><text x="0" y="120" font-family="Cascadia, Segoe UI Emoji" font-size="20px" fill="#000000" text-anchor="start" style="white-space: pre;" direction="ltr" dominant-baseline="text-before-edge">because of hydration.</text></g><g stroke-linecap="round"><g transform="translate(490 1330) rotate(0 -30 -593.3928839101013)"><path d="M0 0 C-14.3 0, -28.6 0, -60 0 M0 0 C-16.49 0, -32.98 0, -60 0 M-60 0 C-60 -283.98, -60 -567.95, -60 -1186.79 M-60 0 C-60 -347.99, -60 -695.98, -60 -1186.79 M-60 -1186.79 C-47.73 -1186.79, -35.46 -1186.79, 0 -1186.79 M-60 -1186.79 C-40.97 -1186.79, -21.94 -1186.79, 0 -1186.79" stroke="#000000" stroke-width="1" fill="none"></path></g><g transform="translate(490 1330) rotate(0 -30 -593.3928839101013)"><path d="M0 -1186.79 L-13.59 -1180.45 L-13.59 -1193.13 L0 -1186.79" stroke="none" stroke-width="0" fill="#000000" fill-rule="evenodd"></path><path d="M0 -1186.79 C-3.24 -1185.27, -6.48 -1183.76, -13.59 -1180.45 M0 -1186.79 C-3.74 -1185.04, -7.47 -1183.3, -13.59 -1180.45 M-13.59 -1180.45 C-13.59 -1183.48, -13.59 -1186.51, -13.59 -1193.13 M-13.59 -1180.45 C-13.59 -1184.16, -13.59 -1187.88, -13.59 -1193.13 M-13.59 -1193.13 C-10.81 -1191.83, -8.03 -1190.53, 0 -1186.79 M-13.59 -1193.13 C-9.28 -1191.11, -4.97 -1189.1, 0 -1186.79 M0 -1186.79 C0 -1186.79, 0 -1186.79, 0 -1186.79 M0 -1186.79 C0 -1186.79, 0 -1186.79, 0 -1186.79" stroke="#000000" stroke-width="1" fill="none"></path></g></g><mask></mask><g transform="translate(530 650) rotate(0 82.03125 12)"><text x="0" y="0" font-family="Cascadia, Segoe UI Emoji" font-size="20px" fill="#087f5b" text-anchor="start" style="white-space: pre;" direction="ltr" dominant-baseline="text-before-edge">+layout.svelte</text></g><g transform="translate(530 690) rotate(0 70.3125 12)"><text x="0" y="0" font-family="Cascadia, Segoe UI Emoji" font-size="20px" fill="#000000" text-anchor="start" style="white-space: pre;" direction="ltr" dominant-baseline="text-before-edge">+page.svelte</text></g><g stroke-linecap="round"><g transform="translate(490 1030) rotate(0 -70 0)"><path d="M0 0 C-44.27 0, -88.54 0, -140 0 M0 0 C-53.58 0, -107.15 0, -140 0" stroke="#000000" stroke-width="1" fill="none"></path></g><g transform="translate(490 1030) rotate(0 -70 0)"><path d="M-140 0 L-126.41 -6.34 L-126.41 6.34 L-140 0" stroke="none" stroke-width="0" fill="#000000" fill-rule="evenodd"></path><path d="M-140 0 C-135.7 -2, -131.4 -4.01, -126.41 -6.34 M-140 0 C-134.8 -2.43, -129.6 -4.85, -126.41 -6.34 M-126.41 -6.34 C-126.41 -1.98, -126.41 2.37, -126.41 6.34 M-126.41 -6.34 C-126.41 -3.16, -126.41 0.02, -126.41 6.34 M-126.41 6.34 C-129.26 5.01, -132.12 3.68, -140 0 M-126.41 6.34 C-129.54 4.88, -132.67 3.42, -140 0 M-140 0 C-140 0, -140 0, -140 0 M-140 0 C-140 0, -140 0, -140 0" stroke="#000000" stroke-width="1" fill="none"></path></g></g><mask></mask><g transform="translate(90 1010) rotate(0 117.1875 24)"><text x="0" y="0" font-family="Cascadia, Segoe UI Emoji" font-size="20px" fill="#000000" text-anchor="start" style="white-space: pre;" direction="ltr" dominant-baseline="text-before-edge">Last `load` function</text><text x="0" y="24" font-family="Cascadia, Segoe UI Emoji" font-size="20px" fill="#000000" text-anchor="start" style="white-space: pre;" direction="ltr" dominant-baseline="text-before-edge">always wins</text></g><g transform="translate(590 10) rotate(0 200.390625 21.599999999999994)"><text x="0" y="0" font-family="Cascadia, Segoe UI Emoji" font-size="36px" fill="#000000" text-anchor="start" style="white-space: pre;" direction="ltr" dominant-baseline="text-before-edge">SvelteKit Data Flow</text></g><g transform="translate(1010 10) rotate(0 22.4609375 21.599999999999994)"><text x="0" y="0" font-family="Cascadia, Segoe UI Emoji" font-size="36px" fill="#000000" text-anchor="start" style="white-space: pre;" direction="ltr" dominant-baseline="text-before-edge">🌊</text></g><g stroke-linecap="round"><g transform="translate(490 470) rotate(0 -70 0)"><path d="M0 0 C-51.96 0, -103.91 0, -140 0 M0 0 C-30.92 0, -61.84 0, -140 0" stroke="#000000" stroke-width="1" fill="none"></path></g><g transform="translate(490 470) rotate(0 -70 0)"><path d="M-140 0 L-126.41 -6.34 L-126.41 6.34 L-140 0" stroke="none" stroke-width="0" fill="#000000" fill-rule="evenodd"></path><path d="M-140 0 C-134.95 -2.35, -129.91 -4.71, -126.41 -6.34 M-140 0 C-137 -1.4, -133.99 -2.8, -126.41 -6.34 M-126.41 -6.34 C-126.41 -1.89, -126.41 2.56, -126.41 6.34 M-126.41 -6.34 C-126.41 -3.34, -126.41 -0.34, -126.41 6.34 M-126.41 6.34 C-129.25 5.01, -132.1 3.69, -140 0 M-126.41 6.34 C-131.26 4.08, -136.11 1.81, -140 0 M-140 0 C-140 0, -140 0, -140 0 M-140 0 C-140 0, -140 0, -140 0" stroke="#000000" stroke-width="1" fill="none"></path></g></g><mask></mask><g transform="translate(10 430) rotate(0 158.203125 36)"><text x="0" y="0" font-family="Cascadia, Segoe UI Emoji" font-size="20px" fill="#000000" text-anchor="start" style="white-space: pre;" direction="ltr" dominant-baseline="text-before-edge">`event.locals` is available</text><text x="0" y="24" font-family="Cascadia, Segoe UI Emoji" font-size="20px" fill="#000000" text-anchor="start" style="white-space: pre;" direction="ltr" dominant-baseline="text-before-edge">in server load functions</text><text x="0" y="48" font-family="Cascadia, Segoe UI Emoji" font-size="20px" fill="#000000" text-anchor="start" style="white-space: pre;" direction="ltr" dominant-baseline="text-before-edge">and `+server.ts` handlers.</text></g><g transform="translate(39.375 602) rotate(0 140.625 48)"><text x="0" y="0" font-family="Cascadia, Segoe UI Emoji" font-size="20px" fill="#000000" text-anchor="start" style="white-space: pre;" direction="ltr" dominant-baseline="text-before-edge">A parent page can access</text><text x="0" y="24" font-family="Cascadia, Segoe UI Emoji" font-size="20px" fill="#000000" text-anchor="start" style="white-space: pre;" direction="ltr" dominant-baseline="text-before-edge">data from a child route</text><text x="0" y="48" font-family="Cascadia, Segoe UI Emoji" font-size="20px" fill="#000000" text-anchor="start" style="white-space: pre;" direction="ltr" dominant-baseline="text-before-edge">using `$page.data`.</text><text x="0" y="72" font-family="Cascadia, Segoe UI Emoji" font-size="20px" fill="#000000" text-anchor="start" style="white-space: pre;" direction="ltr" dominant-baseline="text-before-edge"></text></g><g transform="translate(33.515625 732) rotate(0 146.484375 48)"><text x="0" y="0" font-family="Cascadia, Segoe UI Emoji" font-size="20px" fill="#000000" text-anchor="start" style="white-space: pre;" direction="ltr" dominant-baseline="text-before-edge">Universal and server</text><text x="0" y="24" font-family="Cascadia, Segoe UI Emoji" font-size="20px" fill="#000000" text-anchor="start" style="white-space: pre;" direction="ltr" dominant-baseline="text-before-edge">load functions can access</text><text x="0" y="48" font-family="Cascadia, Segoe UI Emoji" font-size="20px" fill="#000000" text-anchor="start" style="white-space: pre;" direction="ltr" dominant-baseline="text-before-edge">parent layout data with</text><text x="0" y="72" font-family="Cascadia, Segoe UI Emoji" font-size="20px" fill="#000000" text-anchor="start" style="white-space: pre;" direction="ltr" dominant-baseline="text-before-edge">`await parent()`.</text></g><g stroke-linecap="round"><g transform="translate(810 1170) rotate(0 0 30)"><path d="M0 0 C0 14.36, 0 28.71, 0 60 M0 0 C0 17.59, 0 35.19, 0 60" stroke="#000000" stroke-width="2" fill="none"></path></g><g transform="translate(810 1170) rotate(0 0 30)"><path d="M0 60 L-6.34 46.41 L6.34 46.41 L0 60" stroke="none" stroke-width="0" fill="#000000" fill-rule="evenodd"></path><path d="M0 60 C-1.52 56.75, -3.03 53.49, -6.34 46.41 M0 60 C-1.86 56.01, -3.72 52.03, -6.34 46.41 M-6.34 46.41 C-3.75 46.41, -1.15 46.41, 6.34 46.41 M-6.34 46.41 C-2.32 46.41, 1.7 46.41, 6.34 46.41 M6.34 46.41 C5.07 49.13, 3.79 51.86, 0 60 M6.34 46.41 C4.27 50.84, 2.2 55.28, 0 60 M0 60 C0 60, 0 60, 0 60 M0 60 C0 60, 0 60, 0 60" stroke="#000000" stroke-width="2" fill="none"></path></g></g><mask></mask><g transform="translate(510 1250) rotate(0 58.59375 12)"><text x="0" y="0" font-family="Cascadia, Segoe UI Emoji" font-size="20px" fill="#000000" text-anchor="start" style="white-space: pre;" direction="ltr" dominant-baseline="text-before-edge">navigation</text></g><g stroke-linecap="round" transform="translate(10 590) rotate(0 170 50)"><path d="M0 0 C78.54 0, 157.07 0, 340 0 M0 0 C132.99 0, 265.97 0, 340 0 M340 0 C340 24.83, 340 49.66, 340 100 M340 0 C340 27, 340 54.01, 340 100 M340 100 C258.41 100, 176.82 100, 0 100 M340 100 C227 100, 114 100, 0 100 M0 100 C0 78.43, 0 56.87, 0 0 M0 100 C0 72.26, 0 44.53, 0 0" stroke="#495057" stroke-width="1" fill="none"></path></g><g stroke-linecap="round" transform="translate(10 710) rotate(0 170 70)"><path d="M0 0 C116.83 0, 233.65 0, 340 0 M0 0 C85.22 0, 170.43 0, 340 0 M340 0 C340 29.4, 340 58.8, 340 140 M340 0 C340 32.24, 340 64.47, 340 140 M340 140 C271.42 140, 202.84 140, 0 140 M340 140 C265.43 140, 190.87 140, 0 140 M0 140 C0 88.45, 0 36.9, 0 0 M0 140 C0 85.44, 0 30.88, 0 0" stroke="#495057" stroke-width="1" fill="none"></path></g><g stroke-linecap="round" transform="translate(510 1290) rotate(0 300 40)"><path d="M0 0 C236.51 0, 473.02 0, 600 0 M0 0 C150.78 0, 301.56 0, 600 0 M600 0 C600 26.25, 600 52.5, 600 80 M600 0 C600 31.52, 600 63.05, 600 80 M600 80 C385.27 80, 170.53 80, 0 80 M600 80 C425.89 80, 251.78 80, 0 80 M0 80 C0 56.18, 0 32.36, 0 0 M0 80 C0 59.26, 0 38.51, 0 0" stroke="#495057" stroke-width="1" fill="none"></path></g></svg>