<svg xmlns="http://www.w3.org/2000/svg" width="512.01" height="512" viewBox="0 0 135.469 135.467"><path fill="#a0aec0" d="M44.193 81.846c-10.615.683-20.248 4.726-25.714 19.13-.622 1.643-2.117 2.64-3.86 2.64-2.94 0-12.029-7.32-14.619-9.088.003 21.788 10.038 40.939 33.87 40.939 20.07 0 33.866-11.581 33.866-31.8 0-.823-.172-1.61-.257-2.416zM121.153 0c-4.011 0-7.771 1.775-10.64 4.352-54.083 48.313-59.71 49.448-59.71 63.67 0 3.625.86 7.08 2.31 10.24l16.885 14.07c1.908.476 3.874.801 5.924.801 16.433 0 25.958-12.03 55.87-67.855 1.952-3.796 3.677-7.898 3.677-12.168C135.47 5.461 128.59 0 121.153 0z"/></svg>